<svg width="153" height="153" viewBox="0 0 153 153" fill="none" xmlns="http://www.w3.org/2000/svg">
<path d="M117.141 0H35.8594C16.0548 0 0 16.0548 0 35.8594V117.141C0 136.945 16.0548 153 35.8594 153H117.141C136.945 153 153 136.945 153 117.141V35.8594C153 16.0548 136.945 0 117.141 0Z" fill="#222222"/>
<path d="M25.2295 76.4964C25.2295 96.7899 37.0231 114.327 54.1244 122.638L29.6683 55.6317C26.7373 62.1969 25.2248 69.3067 25.2295 76.4964ZM111.109 73.9092C111.109 67.5734 108.833 63.1854 106.881 59.7698C104.282 55.5468 101.846 51.9704 101.846 47.7474C101.846 43.0343 105.421 38.6475 110.455 38.6475C110.683 38.6475 110.898 38.6756 111.12 38.6881C101.998 30.3317 89.8463 25.2295 76.4983 25.2295C58.5877 25.2295 42.8293 34.4191 33.6624 48.3385C34.8649 48.3743 35.9987 48.4 36.9615 48.4C42.3243 48.4 50.6251 47.7486 50.6251 47.7486C53.3887 47.586 53.715 51.6453 50.9538 51.9722C50.9538 51.9722 48.1765 52.2991 45.086 52.4611L63.7556 107.994L74.9754 74.3443L66.9877 52.4593C64.2272 52.2973 61.6118 51.9704 61.6118 51.9704C58.8489 51.8085 59.1728 47.5842 61.9358 47.7474C61.9358 47.7474 70.4022 48.3976 75.4398 48.3976C80.802 48.3976 89.1034 47.7474 89.1034 47.7474C91.8694 47.5842 92.1939 51.6435 89.4321 51.9704C89.4321 51.9704 86.6488 52.2973 83.5643 52.4593L102.092 107.572L107.206 90.4834C109.423 83.3916 111.109 78.2984 111.109 73.9092Z" fill="white"/>
<path d="M77.3981 80.9812L62.0156 125.68C66.7186 127.065 71.5959 127.768 76.4986 127.769C82.2972 127.771 88.0539 126.788 93.5235 124.862C93.3813 124.638 93.2593 124.402 93.1589 124.156L77.3981 80.9812ZM121.485 51.8993C121.718 53.6467 121.833 55.4078 121.83 57.1706C121.83 62.3732 120.858 68.2219 117.932 75.5348L102.271 120.813C117.513 111.924 127.766 95.4117 127.766 76.4976C127.766 67.5836 125.49 59.2015 121.485 51.8993Z" fill="white"/>
<path d="M76.4988 16.7344C43.5452 16.7344 16.7344 43.5434 16.7344 76.4964C16.7344 109.454 43.5452 136.261 76.4988 136.261C109.451 136.261 136.266 109.454 136.266 76.4964C136.264 43.5434 109.451 16.7344 76.4988 16.7344ZM76.4988 133.522C45.0561 133.522 19.4746 107.94 19.4746 76.4964C19.4746 45.0543 45.0555 19.4746 76.4988 19.4746C107.94 19.4746 133.519 45.0543 133.519 76.4964C133.519 107.94 107.94 133.522 76.4988 133.522Z" fill="white"/>
</svg>
