<svg width="153" height="153" viewBox="0 0 153 153" fill="none" xmlns="http://www.w3.org/2000/svg">
<g clip-path="url(#clip0_606_2056)">
<path d="M0 0V153H153V0H0Z" fill="#222222"/>
<path d="M112.95 42.3742L95.2579 33.764C94.2572 33.2736 93.1304 33.1108 92.0341 33.2984C90.9379 33.486 89.9266 34.0146 89.1411 34.8107L55.2544 66.0899L40.4866 54.7609C39.8215 54.2465 38.9991 53.9846 38.1626 54.0209C37.3262 54.0571 36.5289 54.3893 35.9098 54.9593L31.1798 59.3202C30.8101 59.6582 30.5143 60.0706 30.3115 60.531C30.1087 60.9915 30.0032 61.4897 30.002 61.9938C30.0007 62.4979 30.1036 62.9967 30.3042 63.4581C30.5047 63.9196 30.7984 64.3336 31.1664 64.6734L43.975 76.4973L31.1664 88.3211C30.7984 88.661 30.5047 89.0749 30.3042 89.5364C30.1036 89.9979 30.0007 90.4966 30.002 91.0007C30.0032 91.5048 30.1087 92.0031 30.3115 92.4635C30.5143 92.9239 30.8101 93.3364 31.1798 93.6743L35.9098 98.0352C36.5289 98.6053 37.3262 98.9374 38.1626 98.9737C38.9991 99.0099 39.8215 98.748 40.4866 98.2337L55.2544 86.8911L89.1572 118.184C89.9395 118.981 90.9485 119.51 92.043 119.697C93.1374 119.885 94.2624 119.722 95.2606 119.231L112.968 110.607C113.881 110.164 114.651 109.469 115.188 108.602C115.726 107.735 116.009 106.731 116.005 105.708V47.268C116.005 45.1854 114.815 43.2741 112.955 42.3688L112.95 42.3742ZM94.5134 96.2544L68.786 76.5L94.5134 56.7455V96.2544Z" fill="white"/>
</g>
<defs>
<clipPath id="clip0_606_2056">
<rect width="153" height="153" rx="28" fill="white"/>
</clipPath>
</defs>
</svg>
